<svg width="12" height="18" viewBox="0 0 12 18" fill="none" xmlns="http://www.w3.org/2000/svg">
<path fill-rule="evenodd" clip-rule="evenodd" d="M0.925303 10.3251C0.574177 9.97356 0.376953 9.497 0.376953 9.00012C0.376953 8.50324 0.574177 8.02668 0.925303 7.67512L7.9953 0.60262C8.34705 0.251042 8.82405 0.0535938 9.32137 0.053711C9.56762 0.053769 9.81145 0.102329 10.0389 0.196618C10.2664 0.290907 10.4731 0.429079 10.6472 0.603244C10.8213 0.77741 10.9593 0.984159 11.0535 1.21169C11.1477 1.43921 11.1961 1.68306 11.1961 1.92931C11.196 2.17556 11.1475 2.41939 11.0532 2.64687C10.9589 2.87435 10.8207 3.08104 10.6466 3.25512L4.9028 9.00012L10.6478 14.7451C10.827 14.918 10.9699 15.1248 11.0683 15.3535C11.1666 15.5822 11.2185 15.8283 11.2208 16.0772C11.223 16.3262 11.1757 16.5731 11.0816 16.8036C10.9874 17.034 10.8483 17.2435 10.6723 17.4196C10.4963 17.5957 10.2871 17.735 10.0567 17.8294C9.82628 17.9238 9.5794 17.9714 9.33044 17.9693C9.08148 17.9673 8.83542 17.9157 8.60662 17.8175C8.37781 17.7194 8.17085 17.5766 7.9978 17.3976L0.922804 10.3251H0.925303Z" fill="white"/>
</svg>
