<svg width="30" height="30" viewBox="0 0 30 30" fill="none" xmlns="http://www.w3.org/2000/svg">
<path d="M22.1119 14.0625H4.6875C4.43886 14.0625 4.2004 14.1612 4.02459 14.3371C3.84877 14.5129 3.75 14.7513 3.75 15C3.75 15.2486 3.84877 15.4871 4.02459 15.6629C4.2004 15.8387 4.43886 15.9375 4.6875 15.9375H22.1119L15.2737 22.7737C15.0977 22.9498 14.9988 23.1885 14.9988 23.4375C14.9988 23.6864 15.0977 23.9252 15.2737 24.1012C15.4498 24.2773 15.6885 24.3761 15.9375 24.3761C16.1865 24.3761 16.4252 24.2773 16.6012 24.1012L25.0387 15.6637C25.1261 15.5766 25.1953 15.4732 25.2426 15.3593C25.2898 15.2454 25.3142 15.1233 25.3142 15C25.3142 14.8766 25.2898 14.7545 25.2426 14.6407C25.1953 14.5268 25.1261 14.4233 25.0387 14.3362L16.6012 5.89871C16.4252 5.72268 16.1865 5.62378 15.9375 5.62378C15.6885 5.62378 15.4498 5.72268 15.2737 5.89871C15.0977 6.07475 14.9988 6.31351 14.9988 6.56246C14.9988 6.81142 15.0977 7.05018 15.2737 7.22621L22.1119 14.0625Z" fill="#2C7865"/>
</svg>
