<svg width="56" height="56" viewBox="0 0 56 56" fill="none" xmlns="http://www.w3.org/2000/svg">
<path d="M31.2107 0.657227C30.8357 0.657227 27.5545 1.25371 27.5545 1.25371C27.4021 6.12988 23.992 10.4506 16.9725 11.2006L15.4725 8.49707L12.5311 8.78769L13.8553 15.8295L0.520508 15.2553L1.9502 20.1186C16.3162 24.7475 15.66 37.9897 12.5311 49.8256C18.0389 56.0365 29.1482 55.4272 34.3279 54.8764C34.6912 47.5873 40.4686 47.3178 50.2537 51.1029C51.5779 49.0404 52.4568 46.8842 55.4803 45.1615L50.0193 28.8139L46.7967 29.5404C48.0857 27.0678 50.5701 23.6928 52.7029 22.1107L54.531 11.9271C44.1482 11.1889 37.3748 6.49434 31.2107 0.657227Z" fill="#2C7865"/>
</svg>
