<svg width="29" height="26" viewBox="0 0 29 26" fill="none" xmlns="http://www.w3.org/2000/svg">
<path fill-rule="evenodd" clip-rule="evenodd" d="M2.56188 3.24242C3.99063 1.67305 6.03063 0.810547 8.425 0.810547C10.6075 0.810547 12.9381 1.8418 14.5 3.8593C16.0525 1.84367 18.3737 0.810547 20.575 0.810547C22.9637 0.810547 25 1.6693 26.4325 3.23492C27.85 4.78742 28.5625 6.91367 28.5625 9.27242C28.5625 13.3337 26.4756 16.6018 23.8337 19.1424C21.1994 21.6774 17.89 23.6105 15.1469 25.0299C14.946 25.1339 14.7229 25.1878 14.4967 25.1871C14.2705 25.1865 14.0478 25.1313 13.8475 25.0262C11.1044 23.5918 7.795 21.6737 5.16062 19.1518C2.51875 16.6187 0.4375 13.3618 0.4375 9.2743C0.4375 6.92117 1.14625 4.79492 2.56188 3.24242ZM4.64125 5.13617C3.78813 6.07367 3.25 7.4743 3.25 9.2743C3.25 12.3193 4.78 14.8918 7.10688 17.1193C9.25563 19.178 11.9819 20.8412 14.5037 22.1912C17.0069 20.8599 19.735 19.1837 21.8856 17.1155C24.2162 14.8712 25.75 12.2874 25.75 9.2743C25.75 7.46867 25.21 6.06805 24.355 5.13055C23.515 4.21367 22.2625 3.62492 20.575 3.62492C18.745 3.62492 16.6506 4.80242 15.8369 7.28117C15.7448 7.5632 15.566 7.80891 15.3259 7.98313C15.0857 8.15736 14.7967 8.25118 14.5 8.25118C14.2033 8.25118 13.9143 8.15736 13.6741 7.98313C13.434 7.80891 13.2552 7.5632 13.1631 7.28117C12.3513 4.80617 10.2344 3.62492 8.425 3.62492C6.73188 3.62492 5.48125 4.21367 4.64125 5.13617Z" fill="white"/>
</svg>
