<svg width="21" height="20" viewBox="0 0 21 20" fill="none" xmlns="http://www.w3.org/2000/svg">
<path d="M8 8.33332L10.715 10.37C10.8832 10.4961 11.0929 10.554 11.302 10.5321C11.5111 10.5102 11.7042 10.41 11.8425 10.2517L17.1667 4.16666" stroke="black" stroke-width="1.66667" stroke-linecap="round"/>
<path d="M18 9.99999C18 11.5671 17.5092 13.0948 16.5964 14.3687C15.6836 15.6425 14.3947 16.5984 12.9108 17.1021C11.4268 17.6058 9.82237 17.6321 8.32275 17.1771C6.82313 16.7222 5.50369 15.809 4.54973 14.5657C3.59577 13.3224 3.05522 11.8115 3.00401 10.2452C2.95279 8.67896 3.39348 7.13599 4.26419 5.83304C5.13489 4.53008 6.39186 3.53259 7.85855 2.98067C9.32525 2.42874 10.928 2.35011 12.4417 2.75582" stroke="black" stroke-width="1.66667" stroke-linecap="round"/>
</svg>
