<svg width="24" height="25" viewBox="0 0 24 25" fill="none" xmlns="http://www.w3.org/2000/svg">
<path d="M21.3337 3.8335H8.66699V12.5002H24.0003V6.50016C24.0003 5.79292 23.7194 5.11464 23.2193 4.61454C22.7192 4.11445 22.0409 3.8335 21.3337 3.8335Z" fill="#FC3D32"/>
<path d="M8.66699 21.1667H21.3337C22.0409 21.1667 22.7192 20.8857 23.2193 20.3856C23.7194 19.8855 24.0003 19.2072 24.0003 18.5V12.5H8.66699V21.1667Z" fill="#007E3A"/>
<path d="M8.66667 3.8335H2.66667C1.95942 3.8335 1.28115 4.11445 0.781049 4.61454C0.280952 5.11464 0 5.79292 0 6.50016L0 18.5002C0 19.2074 0.280952 19.8857 0.781049 20.3858C1.28115 20.8859 1.95942 21.1668 2.66667 21.1668H8.66667V3.8335Z" fill="white"/>
</svg>
