<svg width="18" height="19" viewBox="0 0 18 19" fill="none" xmlns="http://www.w3.org/2000/svg">
<g clip-path="url(#clip0_1_16)">
<path d="M9 1.0499L9.39 0.593899C9.28132 0.500941 9.14301 0.44986 9 0.44986C8.85699 0.44986 8.71868 0.500941 8.61 0.593899L9 1.0499ZM0.6 8.2499L0.21 7.7939L0 7.9739V8.2499H0.6ZM6.6 17.8499V18.4499C6.75913 18.4499 6.91174 18.3867 7.02426 18.2742C7.13679 18.1616 7.2 18.009 7.2 17.8499H6.6ZM11.4 17.8499H10.8C10.8 18.009 10.8632 18.1616 10.9757 18.2742C11.0883 18.3867 11.2409 18.4499 11.4 18.4499V17.8499ZM17.4 8.2499H18V7.9739L17.79 7.7939L17.4 8.2499ZM1.8 18.4499H6.6V17.2499H1.8V18.4499ZM17.79 7.7939L9.39 0.593899L8.61 1.5059L17.01 8.7059L17.79 7.7939ZM8.61 0.593899L0.21 7.7939L0.99 8.7059L9.39 1.5059L8.61 0.593899ZM7.2 17.8499V14.2499H6V17.8499H7.2ZM10.8 14.2499V17.8499H12V14.2499H10.8ZM11.4 18.4499H16.2V17.2499H11.4V18.4499ZM18 16.6499V8.2499H16.8V16.6499H18ZM0 8.2499V16.6499H1.2V8.2499H0ZM9 12.4499C9.47739 12.4499 9.93523 12.6395 10.2728 12.9771C10.6104 13.3147 10.8 13.7725 10.8 14.2499H12C12 13.4542 11.6839 12.6912 11.1213 12.1286C10.5587 11.566 9.79565 11.2499 9 11.2499V12.4499ZM9 11.2499C8.20435 11.2499 7.44129 11.566 6.87868 12.1286C6.31607 12.6912 6 13.4542 6 14.2499H7.2C7.2 13.7725 7.38964 13.3147 7.72721 12.9771C8.06477 12.6395 8.52261 12.4499 9 12.4499V11.2499ZM16.2 18.4499C16.6774 18.4499 17.1352 18.2603 17.4728 17.9227C17.8104 17.5851 18 17.1273 18 16.6499H16.8C16.8 16.809 16.7368 16.9616 16.6243 17.0742C16.5117 17.1867 16.3591 17.2499 16.2 17.2499V18.4499ZM1.8 17.2499C1.64087 17.2499 1.48826 17.1867 1.37574 17.0742C1.26321 16.9616 1.2 16.809 1.2 16.6499H0C0 17.1273 0.189642 17.5851 0.527208 17.9227C0.864773 18.2603 1.32261 18.4499 1.8 18.4499V17.2499Z" fill="black" fill-opacity="0.5"/>
</g>
<defs>
<clipPath id="clip0_1_16">
<rect width="18" height="18" fill="white" transform="translate(0 0.44986)"/>
</clipPath>
</defs>
</svg>
