<svg width="19" height="30" viewBox="0 0 19 30" fill="none" xmlns="http://www.w3.org/2000/svg">
<path fill-rule="evenodd" clip-rule="evenodd" d="M17.4583 12.7916C18.0435 13.3776 18.3722 14.1718 18.3722 15C18.3722 15.8281 18.0435 16.6224 17.4583 17.2083L5.67497 28.9958C5.08873 29.5818 4.29373 29.9109 3.46486 29.9107C2.63599 29.9105 1.84114 29.581 1.25518 28.9948C0.669218 28.4085 0.340137 27.6135 0.340332 26.7847C0.340527 25.9558 0.669983 25.1609 1.25622 24.575L10.8312 15L1.25622 5.42498C0.686694 4.83587 0.371335 4.04663 0.378066 3.22726C0.384797 2.40789 0.71308 1.62394 1.29221 1.04426C1.87134 0.464587 2.65498 0.135565 3.47434 0.128061C4.29371 0.120557 5.08324 0.435173 5.67289 1.00414L17.4604 12.7896L17.4583 12.7916Z" fill="#F8F8F8"/>
</svg>
