<svg width="60" height="67" viewBox="0 0 60 67" fill="none" xmlns="http://www.w3.org/2000/svg">
<path d="M53.3333 6.83336H39.4C38.7175 4.88482 37.4463 3.19655 35.7622 2.00209C34.0782 0.807625 32.0646 0.166016 30 0.166016C27.9354 0.166016 25.9218 0.807625 24.2378 2.00209C22.5537 3.19655 21.2825 4.88482 20.6 6.83336H6.66667C4.90018 6.83863 3.20755 7.54271 1.95845 8.79181C0.709349 10.0409 0.00527576 11.7335 0 13.5V60.1667C0.00527576 61.9332 0.709349 63.6258 1.95845 64.8749C3.20755 66.124 4.90018 66.8281 6.66667 66.8334H53.3333C55.0998 66.8281 56.7924 66.124 58.0416 64.8749C59.2907 63.6258 59.9947 61.9332 60 60.1667V13.5C59.9947 11.7335 59.2907 10.0409 58.0416 8.79181C56.7924 7.54271 55.0998 6.83863 53.3333 6.83336ZM30 6.83336C30.6593 6.83336 31.3037 7.02885 31.8519 7.39513C32.4001 7.7614 32.8273 8.28199 33.0796 8.89108C33.3319 9.50017 33.3979 10.1704 33.2693 10.817C33.1407 11.4636 32.8232 12.0575 32.357 12.5237C31.8908 12.9899 31.2969 13.3074 30.6503 13.436C30.0037 13.5646 29.3335 13.4986 28.7244 13.2463C28.1153 12.994 27.5947 12.5668 27.2284 12.0186C26.8622 11.4704 26.6667 10.826 26.6667 10.1667C26.6693 9.28345 27.0213 8.43713 27.6459 7.81258C28.2704 7.18803 29.1168 6.836 30 6.83336ZM23.3333 23.5L32.6333 32.8134L41.0333 24.4134L36.6667 20.1667H50V33.5L45.7467 29.13L32.64 42.2467L23.3333 32.9334L14.7133 41.5467L10 36.8334L23.3333 23.5ZM53.3333 56.8334H6.66667V50.1667H53.3333V56.8334Z" fill="#2C7865"/>
</svg>
