<svg width="30" height="30" viewBox="0 0 30 30" fill="none" xmlns="http://www.w3.org/2000/svg">
<path fill-rule="evenodd" clip-rule="evenodd" d="M9.92481 16.3251C9.57369 15.9736 9.37646 15.497 9.37646 15.0001C9.37646 14.5032 9.57369 14.0267 9.92481 13.6751L16.9948 6.60262C17.3466 6.25104 17.8236 6.05359 18.3209 6.05371C18.5671 6.05377 18.811 6.10233 19.0384 6.19662C19.2659 6.29091 19.4726 6.42908 19.6467 6.60324C19.8208 6.77741 19.9588 6.98416 20.053 7.21169C20.1472 7.43921 20.1957 7.68306 20.1956 7.92931C20.1955 8.17556 20.147 8.41939 20.0527 8.64687C19.9584 8.87435 19.8202 9.08104 19.6461 9.25512L13.9023 15.0001L19.6473 20.7451C19.8265 20.918 19.9694 21.1248 20.0678 21.3535C20.1662 21.5822 20.218 21.8283 20.2203 22.0772C20.2226 22.3262 20.1752 22.5731 20.0811 22.8036C19.9869 23.034 19.8478 23.2435 19.6718 23.4196C19.4958 23.5957 19.2866 23.735 19.0562 23.8294C18.8258 23.9238 18.5789 23.9714 18.33 23.9693C18.081 23.9673 17.8349 23.9157 17.6061 23.8175C17.3773 23.7194 17.1704 23.5766 16.9973 23.3976L9.92232 16.3251H9.92481Z" fill="#F8F8F8"/>
</svg>
