<svg width="25" height="29" viewBox="0 0 25 29" fill="none" xmlns="http://www.w3.org/2000/svg">
<path fill-rule="evenodd" clip-rule="evenodd" d="M3.45836 9.62498C3.45836 7.22698 4.41096 4.9272 6.1066 3.23156C7.80224 1.53591 10.102 0.583313 12.5 0.583313C14.898 0.583313 17.1978 1.53591 18.8934 3.23156C20.5891 4.9272 21.5417 7.22698 21.5417 9.62498V14.4868L23.8951 19.1936C24.0034 19.4103 24.0546 19.651 24.0437 19.893C24.0328 20.135 23.9603 20.3701 23.8329 20.5762C23.7056 20.7822 23.5277 20.9523 23.3161 21.0702C23.1045 21.1881 22.8663 21.25 22.6241 21.25H17.5039C17.2166 22.3585 16.5693 23.3403 15.6637 24.0412C14.758 24.742 13.6452 25.1223 12.5 25.1223C11.3548 25.1223 10.2421 24.742 9.33639 24.0412C8.43072 23.3403 7.78342 22.3585 7.49611 21.25H2.37594C2.13372 21.25 1.89552 21.1881 1.68395 21.0702C1.47238 20.9523 1.29447 20.7822 1.16713 20.5762C1.03978 20.3701 0.967215 20.135 0.95633 19.893C0.945446 19.651 0.996602 19.4103 1.10494 19.1936L3.45836 14.4868V9.62498ZM10.2629 21.25C10.4896 21.6427 10.8157 21.9688 11.2084 22.1955C11.6011 22.4222 12.0466 22.5415 12.5 22.5415C12.9535 22.5415 13.3989 22.4222 13.7916 22.1955C14.1843 21.9688 14.5104 21.6427 14.7372 21.25H10.2629ZM12.5 3.16665C10.7872 3.16665 9.14446 3.84708 7.93329 5.05825C6.72212 6.26942 6.04169 7.91212 6.04169 9.62498V14.4868C6.04166 14.8877 5.94835 15.283 5.76915 15.6416L4.2579 18.6666H20.7434L19.2322 15.6416C19.0525 15.2831 18.9588 14.8878 18.9584 14.4868V9.62498C18.9584 7.91212 18.2779 6.26942 17.0668 5.05825C15.8556 3.84708 14.2129 3.16665 12.5 3.16665Z" fill="#272727"/>
</svg>
