<svg width="18" height="19" viewBox="0 0 18 19" fill="none" xmlns="http://www.w3.org/2000/svg">
<path d="M4.92188 13.6686H6.32812C6.40547 13.6686 6.46875 13.6053 6.46875 13.528V5.37173C6.46875 5.29439 6.40547 5.23111 6.32812 5.23111H4.92188C4.84453 5.23111 4.78125 5.29439 4.78125 5.37173V13.528C4.78125 13.6053 4.84453 13.6686 4.92188 13.6686ZM8.29688 8.74673H9.70312C9.78047 8.74673 9.84375 8.68345 9.84375 8.60611V5.37173C9.84375 5.29439 9.78047 5.23111 9.70312 5.23111H8.29688C8.21953 5.23111 8.15625 5.29439 8.15625 5.37173V8.60611C8.15625 8.68345 8.21953 8.74673 8.29688 8.74673ZM11.6719 10.0124H13.0781C13.1555 10.0124 13.2188 9.94908 13.2188 9.87173V5.37173C13.2188 5.29439 13.1555 5.23111 13.0781 5.23111H11.6719C11.5945 5.23111 11.5312 5.29439 11.5312 5.37173V9.87173C11.5312 9.94908 11.5945 10.0124 11.6719 10.0124ZM15.4688 2.41861H2.53125C2.22012 2.41861 1.96875 2.66998 1.96875 2.98111V15.9186C1.96875 16.2297 2.22012 16.4811 2.53125 16.4811H15.4688C15.7799 16.4811 16.0312 16.2297 16.0312 15.9186V2.98111C16.0312 2.66998 15.7799 2.41861 15.4688 2.41861ZM14.7656 15.2155H3.23438V3.68423H14.7656V15.2155Z" fill="black" fill-opacity="0.5"/>
</svg>
