<svg width="22" height="22" viewBox="0 0 22 22" fill="none" xmlns="http://www.w3.org/2000/svg">
<path fill-rule="evenodd" clip-rule="evenodd" d="M9.91667 0.166667C8.35924 0.166836 6.82452 0.540093 5.44097 1.25519C4.05742 1.97029 2.8653 3.00643 1.96442 4.27685C1.06354 5.54728 0.480108 7.01504 0.262961 8.55725C0.0458135 10.0995 0.201273 11.6713 0.716325 13.1411C1.23138 14.6109 2.09103 15.9359 3.22333 17.0052C4.35563 18.0746 5.72762 18.8571 7.22444 19.2873C8.72127 19.7175 10.2994 19.7829 11.8267 19.478C13.354 19.173 14.786 18.5067 16.0028 17.5347L19.9841 21.5159C20.1884 21.7133 20.4621 21.8224 20.7461 21.82C21.0302 21.8175 21.3019 21.7036 21.5027 21.5027C21.7036 21.3019 21.8175 21.0301 21.82 20.7461C21.8225 20.4621 21.7133 20.1884 21.5159 19.9841L17.5347 16.0028C18.6808 14.5683 19.3986 12.8394 19.6055 11.0149C19.8123 9.19046 19.4997 7.34468 18.7038 5.69004C17.9078 4.03539 16.6608 2.63913 15.1062 1.66198C13.5517 0.684834 11.7528 0.166508 9.91667 0.166667ZM3.41667 9.91667C3.41667 9.06307 3.5848 8.21784 3.91145 7.42922C4.23811 6.64061 4.7169 5.92405 5.32048 5.32047C5.92406 4.71689 6.64061 4.2381 7.42923 3.91145C8.21784 3.58479 9.06308 3.41667 9.91667 3.41667C10.7703 3.41667 11.6155 3.58479 12.4041 3.91145C13.1927 4.2381 13.9093 4.71689 14.5129 5.32047C15.1164 5.92405 15.5952 6.64061 15.9219 7.42922C16.2485 8.21784 16.4167 9.06307 16.4167 9.91667C16.4167 11.6406 15.7319 13.2939 14.5129 14.5129C13.2939 15.7318 11.6406 16.4167 9.91667 16.4167C8.19276 16.4167 6.53946 15.7318 5.32048 14.5129C4.10149 13.2939 3.41667 11.6406 3.41667 9.91667Z" fill="#303030"/>
</svg>
