<svg width="50" height="50" viewBox="0 0 50 50" fill="none" xmlns="http://www.w3.org/2000/svg">
<g clip-path="url(#clip0_224_3173)">
<path d="M27.0842 39.0278H23.0564C22.362 39.0278 21.8064 38.6112 21.6675 37.9167L20.9731 35.4167L20.4175 35.1389L18.1953 36.3889C17.6398 36.6667 16.9453 36.6667 16.5286 36.1112L13.612 33.1945C13.1953 32.7778 13.0564 32.0834 13.3342 31.5278L14.5842 29.3056L14.3064 28.7501L11.8064 28.0556C11.2509 27.9167 10.6953 27.3612 10.6953 26.6667V22.6389C10.6953 21.9445 11.112 21.3889 11.8064 21.2501L14.3064 20.5556L14.5842 20.0001L13.3342 17.7778C13.0564 17.2223 13.0564 16.5278 13.612 16.1112L16.5286 13.1945C16.9453 12.7778 17.6398 12.6389 18.1953 12.9167L20.4175 14.1667L20.9731 13.8889L21.6675 11.3889C21.8064 10.8334 22.362 10.2778 23.0564 10.2778H27.0842C27.7786 10.2778 28.3342 10.6945 28.4731 11.3889L29.1675 13.8889L29.7231 14.1667L31.9453 12.9167C32.5009 12.6389 33.1953 12.6389 33.612 13.1945L36.5286 16.1112C36.9453 16.5278 37.0842 17.2223 36.8064 17.7778L35.5564 20.0001L35.8342 20.5556L38.3342 21.2501C38.8898 21.3889 39.4453 21.9445 39.4453 22.6389V26.6667C39.4453 27.3612 39.0286 27.9167 38.3342 28.0556L35.8342 28.7501L35.5564 29.3056L36.8064 31.5278C37.0842 32.0834 37.0842 32.7778 36.5286 33.1945L33.612 36.1112C33.1953 36.5278 32.5009 36.6667 31.9453 36.3889L29.7231 35.1389L29.1675 35.4167L28.4731 37.9167C28.1953 38.6112 27.6398 39.0278 27.0842 39.0278ZM24.0286 36.2501H25.9731L26.6675 33.3334L27.362 33.0556C27.9175 32.9167 28.3342 32.6389 28.8898 32.5001L29.5842 32.0834L32.2231 33.6112L33.612 32.2223L32.0842 29.5834L32.5009 28.8889C32.7786 28.4723 32.9175 27.9167 33.0564 27.3612L33.3342 26.6667L36.2509 25.9723V24.0278L33.3342 23.3334L33.0564 22.6389C32.9175 22.0834 32.6398 21.6667 32.5009 21.1112L32.0842 20.4167L33.612 17.7778L32.2231 16.3889L29.5842 17.9167L28.8898 17.5001C28.4731 17.2223 27.9175 17.0834 27.362 16.9445L26.6675 16.6667L25.9731 13.7501H24.0286L23.3342 16.6667L22.6398 16.9445C22.0842 17.0834 21.6675 17.3612 21.112 17.5001L20.4175 17.9167L17.7786 16.3889L16.3898 17.7778L17.9175 20.4167L17.5009 21.1112C17.2231 21.5278 17.0842 22.0834 16.9453 22.6389L16.6675 23.3334L13.7509 24.0278V25.9723L16.6675 26.6667L16.9453 27.3612C17.0842 27.9167 17.362 28.3334 17.5009 28.8889L17.9175 29.5834L16.3898 32.2223L17.7786 33.6112L20.4175 32.0834L21.112 32.5001C21.5286 32.7778 22.0842 32.9167 22.6398 33.0556L23.3342 33.3334L24.0286 36.2501Z" fill="#2C7865"/>
<path d="M24.9996 30.9723C21.6662 30.9723 19.0273 28.3334 19.0273 25.0001C19.0273 21.6667 21.6662 19.0278 24.9996 19.0278C28.3329 19.0278 30.9718 21.6667 30.9718 25.0001C30.9718 28.3334 28.3329 30.9723 24.9996 30.9723ZM24.9996 21.8056C23.194 21.8056 21.8051 23.1945 21.8051 25.0001C21.8051 26.8056 23.194 28.1945 24.9996 28.1945C26.8051 28.1945 28.194 26.8056 28.194 25.0001C28.194 23.1945 26.8051 21.8056 24.9996 21.8056Z" fill="#2C7865"/>
<path d="M24.9996 2.77783C24.1662 2.77783 23.6107 3.33339 23.6107 4.16672C23.6107 5.00005 24.1662 5.55561 24.9996 5.55561C35.694 5.55561 44.444 14.3056 44.444 25.0001C44.444 35.6945 35.694 44.4445 24.9996 44.4445C14.3051 44.4445 5.55512 35.6945 5.55512 25.0001C5.55512 21.1112 6.66623 17.3612 8.88845 14.1667V15.8334C8.88845 16.6667 9.44401 17.2223 10.2773 17.2223C11.1107 17.2223 11.6662 16.6667 11.6662 15.8334V8.88894H4.72179C3.88845 8.88894 3.3329 9.4445 3.3329 10.2778C3.3329 11.1112 3.88845 11.6667 4.72179 11.6667H7.22179C4.30512 15.4167 2.77734 20.1389 2.77734 25.0001C2.77734 37.2223 12.7773 47.2223 24.9996 47.2223C37.2218 47.2223 47.2218 37.2223 47.2218 25.0001C47.2218 12.7778 37.2218 2.77783 24.9996 2.77783Z" fill="#2C7865"/>
</g>
<defs>
<clipPath id="clip0_224_3173">
<rect width="50" height="50" fill="white"/>
</clipPath>
</defs>
</svg>
