<svg width="24" height="24" viewBox="0 0 24 24" fill="none" xmlns="http://www.w3.org/2000/svg">
<path d="M7.5 9.75C7.5 9.55109 7.57902 9.36032 7.71967 9.21967C7.86032 9.07902 8.05109 9 8.25 9C8.44891 9 8.63968 9.07902 8.78033 9.21967C8.92098 9.36032 9 9.55109 9 9.75V11.25C9 11.4489 8.92098 11.6397 8.78033 11.7803C8.63968 11.921 8.44891 12 8.25 12C8.05109 12 7.86032 11.921 7.71967 11.7803C7.57902 11.6397 7.5 11.4489 7.5 11.25V9.75ZM12 9.75C12 9.55109 12.079 9.36032 12.2197 9.21967C12.3603 9.07902 12.5511 9 12.75 9C12.9489 9 13.1397 9.07902 13.2803 9.21967C13.421 9.36032 13.5 9.55109 13.5 9.75V11.25C13.5 11.4489 13.421 11.6397 13.2803 11.7803C13.1397 11.921 12.9489 12 12.75 12C12.5511 12 12.3603 11.921 12.2197 11.7803C12.079 11.6397 12 11.4489 12 11.25V9.75ZM17.25 9C17.0511 9 16.8603 9.07902 16.7197 9.21967C16.579 9.36032 16.5 9.55109 16.5 9.75V11.25C16.5 11.4489 16.579 11.6397 16.7197 11.7803C16.8603 11.921 17.0511 12 17.25 12C17.4489 12 17.6397 11.921 17.7803 11.7803C17.921 11.6397 18 11.4489 18 11.25V9.75C18 9.55109 17.921 9.36032 17.7803 9.21967C17.6397 9.07902 17.4489 9 17.25 9Z" fill="white" fill-opacity="0.47"/>
<path fill-rule="evenodd" clip-rule="evenodd" d="M20.25 6.00001H4.95001L4.55401 3.63001C4.52605 3.45436 4.43608 3.29454 4.30042 3.17951C4.16475 3.06449 3.99237 3.00187 3.81451 3.00301H2.31451C2.1156 3.00301 1.92484 3.08202 1.78418 3.22268C1.64353 3.36333 1.56451 3.55409 1.56451 3.75301C1.56451 3.95192 1.64353 4.14268 1.78418 4.28334C1.92484 4.42399 2.1156 4.50301 2.31451 4.50301H3.17851L5.32351 17.373C5.35148 17.5487 5.44145 17.7085 5.57711 17.8235C5.71277 17.9385 5.88516 18.0011 6.06301 18H18.813C19.0119 18 19.2027 17.921 19.3433 17.7803C19.484 17.6397 19.563 17.4489 19.563 17.25C19.563 17.0511 19.484 16.8603 19.3433 16.7197C19.2027 16.579 19.0119 16.5 18.813 16.5H6.69301L6.44251 15H19.5525C19.9181 14.9999 20.271 14.8663 20.545 14.6244C20.819 14.3824 20.9952 14.0487 21.0405 13.686L21.777 7.79101C21.8202 7.57383 21.8148 7.34978 21.7611 7.13495C21.7074 6.92012 21.6069 6.71984 21.4666 6.54848C21.3264 6.37713 21.1499 6.23894 20.95 6.14385C20.75 6.04876 20.5314 5.99913 20.31 5.99851L20.25 6.00001ZM5.10001 7.50001L6.09601 13.5H19.476L20.226 7.50001H5.07601H5.10001Z" fill="white" fill-opacity="0.47"/>
<path d="M5.43003 19.35C5.7819 18.9983 6.25907 18.8008 6.75656 18.801C7.25404 18.8011 7.7311 18.9989 8.08278 19.3507C8.43445 19.7026 8.63194 20.1798 8.6318 20.6773C8.63166 21.1748 8.4339 21.6518 8.08203 22.0035C7.73015 22.3552 7.25298 22.5527 6.7555 22.5525C6.25801 22.5524 5.78095 22.3546 5.42928 22.0027C5.0776 21.6509 4.88011 21.1737 4.88025 20.6762C4.88039 20.1787 5.07815 19.7017 5.43003 19.35ZM17.4 19.35C17.7519 18.9983 18.2291 18.8008 18.7266 18.801C19.224 18.8011 19.7011 18.9989 20.0528 19.3507C20.4045 19.7026 20.6019 20.1798 20.6018 20.6773C20.6017 21.1748 20.4039 21.6518 20.052 22.0035C19.7002 22.3552 19.223 22.5527 18.7255 22.5525C18.228 22.5524 17.751 22.3546 17.3993 22.0027C17.0476 21.6509 16.8501 21.1737 16.8502 20.6762C16.8504 20.1787 17.0482 19.7017 17.4 19.35Z" fill="white" fill-opacity="0.47"/>
</svg>
