<svg width="70" height="60" viewBox="0 0 70 60" fill="none" xmlns="http://www.w3.org/2000/svg">
<path d="M31.6334 45.6543C31.6334 41.9877 30.675 38.9127 28.7583 36.4168C27.4 34.7002 25.5583 33.571 23.2292 33.0335C20.9375 32.5002 18.7708 32.4627 16.8125 32.9168C16.1458 28.9585 17.2292 24.7668 19.9792 20.3252C22.7292 15.8877 26.2917 12.546 30.6375 10.3127L24.05 0.833496C20.7167 2.4835 17.55 4.57516 14.6333 7.10433C11.675 9.6335 9.05001 12.5418 6.71668 15.8293C4.38335 19.1168 2.63335 22.8293 1.50835 27.0377C0.383349 31.246 0.0708492 35.5377 0.608349 39.9543C1.30835 45.7877 3.19168 50.4543 6.25835 53.9127C9.32085 57.4168 13.1417 59.1668 17.7083 59.1668C21.7292 59.1668 25.0667 57.9585 27.7083 55.5085C30.325 53.1085 31.625 49.821 31.625 45.6418L31.6334 45.6543ZM69.65 45.6543C69.65 41.9877 68.6917 38.9127 66.775 36.4168C65.4167 34.6668 63.5667 33.5335 61.2458 33.0127C58.9125 32.496 56.775 32.471 54.8292 32.921C54.1625 29.0043 55.2042 24.796 57.9625 20.3377C60.7125 15.921 64.2667 12.5877 68.6125 10.3377L62.0417 0.833496C58.7083 2.4835 55.5625 4.57516 52.625 7.10433C49.6397 9.67097 46.9884 12.6022 44.7333 15.8293C42.4167 19.121 40.6917 22.8293 39.5667 27.0377C38.4284 31.2435 38.1213 35.6309 38.6625 39.9543C39.3542 45.7877 41.2292 50.4543 44.2875 53.9127C47.3417 57.3877 51.15 59.1293 55.7167 59.1293C59.7458 59.1293 63.0834 57.921 65.725 55.4752C68.3375 53.0752 69.65 49.7877 69.65 45.6085V45.6543Z" fill="#2C7865"/>
</svg>
