<svg width="30" height="30" viewBox="0 0 30 30" fill="none" xmlns="http://www.w3.org/2000/svg">
<g clip-path="url(#clip0_452_289)">
<path d="M24.3285 2.91423C25.308 3.68223 25.983 4.92273 26.259 6.22173C26.2924 6.23231 26.325 6.24535 26.3565 6.26073L29.424 7.67973C29.5955 7.75846 29.7408 7.88462 29.8429 8.0433C29.9449 8.20198 29.9995 8.38656 30 8.57523V27.1257C29.9989 27.2798 29.9621 27.4316 29.8925 27.5691C29.8229 27.7066 29.7224 27.8261 29.5989 27.9182C29.4754 28.0103 29.3322 28.0726 29.1806 28.1001C29.029 28.1276 28.873 28.1196 28.725 28.0767L20.2215 25.6767L10.1115 28.4637C9.92909 28.5138 9.73629 28.5118 9.555 28.4577L0.711 25.8252C0.506581 25.7652 0.326985 25.6408 0.198893 25.4706C0.0708015 25.3003 0.00104949 25.0933 0 24.8802L0 5.99673C0 5.33673 0.642 4.86273 1.2825 5.04873L9.8355 7.54023L14.1825 6.20973C14.2423 6.19207 14.3035 6.17952 14.3655 6.17223C14.5335 5.18823 15.003 4.24323 15.7905 3.32223C16.725 2.22723 18.3645 1.58523 19.962 1.50873C21.6195 1.42923 22.8855 1.78323 24.327 2.91273M1.9995 7.32123V24.1437L9.3045 26.3172V9.44673L1.9995 7.32123ZM14.313 8.24223L11.304 9.16173V26.0802L18.9015 23.9892V19.0467C18.9015 18.5007 19.35 18.0582 19.902 18.0582C20.454 18.0582 20.901 18.5007 20.901 19.0482V23.8137L28.0005 25.8162V9.20373L26.3205 8.42373C26.292 8.58873 26.256 8.75073 26.211 8.90823C25.8848 10.0584 25.3376 11.1339 24.6 12.0747L20.8845 16.7142C20.7867 16.8362 20.6617 16.9337 20.5196 16.9989C20.3775 17.0641 20.2221 17.0953 20.0658 17.0899C19.9096 17.0845 19.7567 17.0427 19.6194 16.9679C19.4821 16.893 19.3642 16.7872 19.275 16.6587L15.8025 11.6292C15.2295 10.8282 14.8275 10.1142 14.601 9.47523C14.4588 9.0764 14.3622 8.66277 14.313 8.24223ZM20.058 3.48573C18.969 3.53823 17.85 3.97623 17.3175 4.59873C16.677 5.34873 16.362 6.05073 16.299 6.76173C16.224 7.61823 16.275 8.22273 16.488 8.82123C16.6455 9.26373 16.959 9.82473 17.4435 10.5012L20.16 14.4342L23.025 10.8567C23.603 10.1181 24.0315 9.27382 24.2865 8.37123C24.6465 7.11123 24.1035 5.26023 23.0865 4.46523C22.044 3.64773 21.2565 3.42723 20.0595 3.48573M20.2665 4.53123C21.9225 4.53123 23.2665 5.85873 23.2665 7.49673C23.2643 7.88846 23.185 8.27593 23.0331 8.63699C22.8811 8.99806 22.6595 9.32564 22.3809 9.60104C22.1023 9.87643 21.7722 10.0942 21.4094 10.242C21.0466 10.3898 20.6582 10.4646 20.2665 10.4622C18.6105 10.4622 17.2665 9.13473 17.2665 7.49673C17.2665 5.85873 18.6105 4.53123 20.2665 4.53123ZM20.2665 6.50823C20.1359 6.50744 20.0064 6.53238 19.8855 6.58163C19.7645 6.63088 19.6544 6.70347 19.5615 6.79527C19.4686 6.88706 19.3947 6.99625 19.344 7.11661C19.2933 7.23696 19.2668 7.36613 19.266 7.49673C19.266 8.04273 19.7145 8.48523 20.2665 8.48523C20.3971 8.48582 20.5265 8.46069 20.6474 8.41125C20.7683 8.36182 20.8783 8.28906 20.971 8.19713C21.0638 8.1052 21.1376 7.9959 21.1881 7.87547C21.2386 7.75504 21.2649 7.62583 21.2655 7.49523C21.2635 7.23199 21.1572 6.98028 20.97 6.79527C20.7827 6.61025 20.5297 6.50703 20.2665 6.50823Z" fill="#303030"/>
</g>
<defs>
<clipPath id="clip0_452_289">
<rect width="30" height="30" fill="white"/>
</clipPath>
</defs>
</svg>
