<svg width="22" height="21" viewBox="0 0 22 21" fill="none" xmlns="http://www.w3.org/2000/svg">
<path d="M18.927 14.9375C18.2915 14.3015 17.5489 13.7824 16.7333 13.4039C17.8835 12.4721 18.6173 11.0502 18.6173 9.45567C18.6173 6.64239 16.2712 4.33438 13.4579 4.37755C10.6878 4.42071 8.45592 6.67794 8.45592 9.45567C8.45592 11.0502 9.19225 12.4721 10.3399 13.4039C9.52414 13.7821 8.7815 14.3012 8.14616 14.9375C6.75983 16.3264 5.97272 18.1596 5.92194 20.1147C5.92126 20.1418 5.92601 20.1687 5.93592 20.194C5.94582 20.2192 5.96068 20.2422 5.97961 20.2616C5.99854 20.281 6.02116 20.2964 6.04614 20.3069C6.07112 20.3175 6.09796 20.3229 6.12506 20.3229H7.54694C7.65612 20.3229 7.74752 20.2365 7.75006 20.1274C7.79831 18.6547 8.39499 17.276 9.44362 16.2299C9.98022 15.6904 10.6185 15.2628 11.3215 14.9716C12.0245 14.6805 12.7782 14.5317 13.5391 14.5338C15.0854 14.5338 16.5403 15.1356 17.6346 16.2299C18.6807 17.276 19.2774 18.6547 19.3282 20.1274C19.3307 20.2365 19.4221 20.3229 19.5313 20.3229H20.9532C20.9803 20.3229 21.0071 20.3175 21.0321 20.3069C21.0571 20.2964 21.0797 20.281 21.0986 20.2616C21.1176 20.2422 21.1324 20.2192 21.1423 20.194C21.1522 20.1687 21.157 20.1418 21.1563 20.1147C21.1055 18.1596 20.3184 16.3264 18.927 14.9375ZM13.5391 12.7057C12.6708 12.7057 11.8532 12.368 11.2413 11.7535C10.9342 11.4489 10.6916 11.0854 10.528 10.685C10.3644 10.2845 10.2832 9.85521 10.2891 9.42267C10.2967 8.58985 10.6294 7.78497 11.2108 7.18829C11.8202 6.56368 12.6352 6.21583 13.5061 6.20567C14.3669 6.19806 15.2022 6.53321 15.8167 7.13497C16.4464 7.75196 16.7917 8.57716 16.7917 9.45567C16.7917 10.324 16.454 11.1391 15.8395 11.7535C15.5381 12.0564 15.1795 12.2965 14.7847 12.46C14.3898 12.6234 13.9665 12.7069 13.5391 12.7057ZM7.17877 10.126C7.15592 9.90509 7.14323 9.68165 7.14323 9.45567C7.14323 9.05196 7.18131 8.65841 7.25241 8.27501C7.27018 8.1836 7.22194 8.08966 7.13815 8.05157C6.79284 7.89669 6.47545 7.68341 6.20124 7.41427C5.87811 7.10097 5.62385 6.72375 5.45466 6.30669C5.28548 5.88962 5.20508 5.44187 5.21862 4.992C5.24147 4.17696 5.56901 3.40255 6.1403 2.81856C6.76745 2.17618 7.61041 1.82579 8.5067 1.83595C9.31666 1.84356 10.0987 2.15587 10.6903 2.70938C10.8909 2.89728 11.0635 3.10548 11.2083 3.32892C11.259 3.40763 11.3581 3.44063 11.4444 3.41017C11.8913 3.25528 12.3635 3.1461 12.8485 3.09532C12.9907 3.08009 13.0719 2.92774 13.0085 2.80079C12.1833 1.16817 10.4973 0.0408301 8.54733 0.0103614C5.73151 -0.0328027 3.38542 2.27521 3.38542 5.08595C3.38542 6.68048 4.1192 8.10235 5.2694 9.03419C4.46198 9.40743 3.71803 9.92286 3.07311 10.5678C1.6817 11.9567 0.894595 13.7899 0.843813 15.7475C0.843136 15.7746 0.847889 15.8015 0.857793 15.8268C0.867697 15.852 0.882552 15.875 0.901482 15.8944C0.920412 15.9138 0.943034 15.9292 0.968015 15.9397C0.992996 15.9503 1.01983 15.9557 1.04694 15.9557H2.47135C2.58053 15.9557 2.67194 15.8693 2.67448 15.7602C2.72272 14.2875 3.3194 12.9088 4.36803 11.8627C5.11452 11.1162 6.02858 10.5983 7.02643 10.3469C7.12545 10.3215 7.19147 10.2275 7.17877 10.126Z" fill="#2A2A2A"/>
</svg>
