<svg width="18" height="12" viewBox="0 0 18 12" fill="none" xmlns="http://www.w3.org/2000/svg">
<path fill-rule="evenodd" clip-rule="evenodd" d="M7.675 0.925303C8.02657 0.574177 8.50313 0.376953 9 0.376953C9.49688 0.376953 9.97344 0.574177 10.325 0.925303L17.3975 7.9953C17.5716 8.16947 17.7097 8.37622 17.8038 8.60374C17.898 8.83127 17.9465 9.07512 17.9464 9.32137C17.9464 9.56762 17.8978 9.81145 17.8035 10.0389C17.7092 10.2664 17.571 10.4731 17.3969 10.6472C17.2227 10.8213 17.016 10.9593 16.7884 11.0535C16.5609 11.1477 16.3171 11.1961 16.0708 11.1961C15.8246 11.196 15.5807 11.1475 15.3533 11.0532C15.1258 10.9589 14.9191 10.8207 14.745 10.6466L9 4.9028L3.255 10.6478C3.08212 10.827 2.87529 10.9699 2.64658 11.0683C2.41787 11.1666 2.17186 11.2185 1.9229 11.2208C1.67394 11.223 1.42702 11.1757 1.19655 11.0816C0.966075 10.9874 0.756663 10.8483 0.580532 10.6723C0.404401 10.4963 0.265078 10.2871 0.170693 10.0567C0.0763073 9.82628 0.0287492 9.5794 0.0307945 9.33044C0.0328397 9.08148 0.084447 8.83542 0.182605 8.60662C0.280762 8.37781 0.423504 8.17085 0.602503 7.9978L7.675 0.925303Z" fill="#2A2A2A"/>
</svg>
