<svg width="18" height="12" viewBox="0 0 18 12" fill="none" xmlns="http://www.w3.org/2000/svg">
<path fill-rule="evenodd" clip-rule="evenodd" d="M10.3251 11.075C9.97356 11.4261 9.49699 11.6233 9.00012 11.6233C8.50324 11.6233 8.02668 11.4261 7.67512 11.075L0.60262 4.00498C0.251042 3.65324 0.0535938 3.17624 0.053711 2.67892C0.0538282 2.18159 0.251501 1.70469 0.603244 1.35311C0.954988 1.00153 1.43199 0.804082 1.92931 0.804199C2.42663 0.804316 2.90354 1.00199 3.25512 1.35373L9.00012 7.09873L14.7451 1.35373C15.0986 1.01202 15.5721 0.822801 16.0638 0.826839C16.5554 0.830878 17.0257 1.02785 17.3735 1.37533C17.7214 1.7228 17.9188 2.19299 17.9233 2.6846C17.9278 3.17622 17.739 3.64994 17.3976 4.00373L10.3264 11.0762L10.3251 11.075Z" fill="white" fill-opacity="0.8"/>
</svg>
