<svg width="41" height="41" viewBox="0 0 41 41" fill="none" xmlns="http://www.w3.org/2000/svg">
<path d="M30.2325 19.25H7C6.66848 19.25 6.35054 19.3817 6.11612 19.6161C5.8817 19.8505 5.75 20.1685 5.75 20.5C5.75 20.8315 5.8817 21.1495 6.11612 21.3839C6.35054 21.6183 6.66848 21.75 7 21.75H30.2325L21.115 30.865C20.8803 31.0997 20.7484 31.4181 20.7484 31.75C20.7484 32.0819 20.8803 32.4003 21.115 32.635C21.3497 32.8697 21.6681 33.0016 22 33.0016C22.3319 33.0016 22.6503 32.8697 22.885 32.635L34.135 21.385C34.2514 21.2689 34.3438 21.131 34.4068 20.9791C34.4698 20.8272 34.5022 20.6644 34.5022 20.5C34.5022 20.3356 34.4698 20.1728 34.4068 20.0209C34.3438 19.8691 34.2514 19.7311 34.135 19.615L22.885 8.36501C22.6503 8.13029 22.3319 7.99843 22 7.99843C21.6681 7.99843 21.3497 8.13029 21.115 8.36501C20.8803 8.59972 20.7484 8.91807 20.7484 9.25001C20.7484 9.58195 20.8803 9.90029 21.115 10.135L30.2325 19.25Z" fill="#272727"/>
</svg>
