<svg width="30" height="30" viewBox="0 0 30 30" fill="none" xmlns="http://www.w3.org/2000/svg">
<path d="M11.3843 3.34267C12.4802 2.80234 13.7061 2.5 15 2.5C19.6593 2.5 23.4364 6.42029 23.4364 11.2562V12.137C23.4364 13.1939 23.7379 14.2273 24.3028 15.1067L25.6871 17.2619C26.9515 19.2304 25.9862 21.9061 23.787 22.5286C18.0341 24.1571 11.9659 24.1571 6.21295 22.5286C4.01381 21.9061 3.04853 19.2304 4.31295 17.2619L5.69725 15.1067C6.26215 14.2273 6.56359 13.1939 6.56359 12.137V11.2562C6.56359 9.91323 6.85489 8.64086 7.37549 7.50347" stroke="#303030" stroke-width="1.5" stroke-linecap="round"/>
<path d="M9.375 23.75C10.1938 25.9347 12.4031 27.5 15 27.5C15.3056 27.5 15.6058 27.4783 15.899 27.4365M20.625 23.75C20.2912 24.6407 19.7262 25.4285 18.9981 26.0492" stroke="#303030" stroke-width="1.5" stroke-linecap="round"/>
</svg>
