<svg width="21" height="21" viewBox="0 0 21 21" fill="none" xmlns="http://www.w3.org/2000/svg">
<path d="M8.25 8.83334L10.965 10.87C11.1332 10.9962 11.3429 11.0541 11.552 11.0321C11.7611 11.0102 11.9542 10.91 12.0925 10.7517L17.4167 4.66667" stroke="#2C7865" stroke-width="1.66667" stroke-linecap="round"/>
<path d="M18.25 10.5C18.25 12.0671 17.7592 13.5949 16.8464 14.8687C15.9336 16.1425 14.6447 17.0984 13.1608 17.6021C11.6768 18.1058 10.0724 18.1321 8.57275 17.6772C7.07313 17.2222 5.75369 16.309 4.79973 15.0657C3.84577 13.8224 3.30522 12.3115 3.25401 10.7452C3.20279 9.17898 3.64348 7.63601 4.51419 6.33305C5.38489 5.0301 6.64186 4.03261 8.10855 3.48068C9.57525 2.92876 11.178 2.85013 12.6917 3.25584" stroke="#2C7865" stroke-width="1.66667" stroke-linecap="round"/>
</svg>
