<svg width="24" height="24" viewBox="0 0 24 24" fill="none" xmlns="http://www.w3.org/2000/svg">
<path fill-rule="evenodd" clip-rule="evenodd" d="M4.7932 2.03333H4.71654C4.3654 2.03333 4.06334 2.03333 3.79654 2.09619C3.38351 2.19488 3.00587 2.406 2.70546 2.70614C2.40505 3.00627 2.1936 3.38372 2.09454 3.79666C2.0332 4.06346 2.0332 4.36399 2.0332 4.71666V8.54999C2.0332 8.90112 2.0332 9.20319 2.09607 9.46999C2.19476 9.88302 2.40587 10.2607 2.70601 10.5611C3.00615 10.8615 3.3836 11.0729 3.79654 11.172C4.06334 11.2333 4.36387 11.2333 4.71654 11.2333H8.54987C8.901 11.2333 9.20307 11.2333 9.46987 11.1705C9.88289 11.0718 10.2605 10.8607 10.5609 10.5605C10.8614 10.2604 11.0728 9.88293 11.1719 9.46999C11.2332 9.20319 11.2332 8.90266 11.2332 8.54999V4.71666C11.2332 4.36553 11.2332 4.06346 11.1703 3.79666C11.0716 3.38363 10.8605 3.006 10.5604 2.70559C10.2603 2.40518 9.8828 2.19372 9.46987 2.09466C9.20307 2.03333 8.90254 2.03333 8.54987 2.03333H4.7932ZM4.1538 3.58812C4.21974 3.57279 4.32247 3.56666 4.7932 3.56666H8.4732C8.94547 3.56666 9.04667 3.57126 9.1126 3.58812C9.25034 3.62106 9.37627 3.69151 9.47641 3.79165C9.57655 3.8918 9.647 4.01772 9.67994 4.15546C9.69527 4.21986 9.69987 4.32106 9.69987 4.79332V8.47332C9.69987 8.94559 9.69527 9.04679 9.6784 9.11272C9.64546 9.25046 9.57502 9.37639 9.47487 9.47653C9.37473 9.57667 9.24881 9.64712 9.11107 9.68006C9.0482 9.69386 8.947 9.69999 8.4732 9.69999H4.7932C4.32094 9.69999 4.21974 9.69539 4.1538 9.67852C4.01606 9.64559 3.89014 9.57514 3.79 9.475C3.68986 9.37485 3.61941 9.24893 3.58647 9.11119C3.57267 9.04832 3.56654 8.94712 3.56654 8.47332V4.79332C3.56654 4.32106 3.57114 4.21986 3.588 4.15392C3.62094 4.01619 3.69139 3.89026 3.79153 3.79012C3.89167 3.68998 4.0176 3.61953 4.15534 3.58659M15.5265 2.03333H15.4499C15.0987 2.03333 14.7967 2.03333 14.5299 2.09619C14.1168 2.19488 13.7392 2.406 13.4388 2.70614C13.1384 3.00627 12.9269 3.38372 12.8279 3.79666C12.7665 4.06346 12.7665 4.36399 12.7665 4.71666V8.54999C12.7665 8.90112 12.7665 9.20319 12.8294 9.46999C12.9281 9.88302 13.1392 10.2607 13.4393 10.5611C13.7395 10.8615 14.1169 11.0729 14.5299 11.172C14.7967 11.2333 15.0972 11.2333 15.4499 11.2333H19.2832C19.6343 11.2333 19.9364 11.2333 20.2032 11.1705C20.6162 11.0718 20.9939 10.8607 21.2943 10.5605C21.5947 10.2604 21.8061 9.88293 21.9052 9.46999C21.9665 9.20319 21.9665 8.90266 21.9665 8.54999V4.71666C21.9665 4.36553 21.9665 4.06346 21.9037 3.79666C21.805 3.38363 21.5939 3.006 21.2937 2.70559C20.9936 2.40518 20.6161 2.19372 20.2032 2.09466C19.9364 2.03333 19.6359 2.03333 19.2832 2.03333H15.5265ZM14.8871 3.58812C14.9531 3.57279 15.0558 3.56666 15.5265 3.56666H19.2065C19.6788 3.56666 19.78 3.57126 19.8459 3.58812C19.9837 3.62106 20.1096 3.69151 20.2097 3.79165C20.3099 3.8918 20.3803 4.01772 20.4133 4.15546C20.4286 4.21986 20.4332 4.32106 20.4332 4.79332V8.47332C20.4332 8.94559 20.4271 9.04679 20.4117 9.11272C20.3788 9.25046 20.3084 9.37639 20.2082 9.47653C20.1081 9.57667 19.9821 9.64712 19.8444 9.68006C19.78 9.69539 19.6788 9.69999 19.2065 9.69999H15.5265C15.0543 9.69999 14.9531 9.69539 14.8871 9.67852C14.7494 9.64559 14.6235 9.57514 14.5233 9.475C14.4232 9.37485 14.3527 9.24893 14.3198 9.11119C14.306 9.04832 14.2999 8.94712 14.2999 8.47332V4.79332C14.2999 4.32106 14.3045 4.21986 14.3213 4.15392C14.3543 4.01619 14.4247 3.89026 14.5249 3.79012C14.625 3.68998 14.7509 3.61953 14.8887 3.58659M4.71654 12.7667H8.54987C8.901 12.7667 9.20307 12.7667 9.46987 12.8295C9.88289 12.9282 10.2605 13.1393 10.5609 13.4395C10.8614 13.7396 11.0728 14.1171 11.1719 14.53C11.2332 14.7968 11.2332 15.0973 11.2332 15.45V19.2833C11.2332 19.6345 11.2332 19.9365 11.1703 20.2033C11.0716 20.6163 10.8605 20.994 10.5604 21.2944C10.2603 21.5948 9.8828 21.8063 9.46987 21.9053C9.20307 21.9667 8.90254 21.9667 8.54987 21.9667H4.71654C4.3654 21.9667 4.06334 21.9667 3.79654 21.9038C3.38351 21.8051 3.00587 21.594 2.70546 21.2938C2.40505 20.9937 2.1936 20.6163 2.09454 20.2033C2.0332 19.9365 2.0332 19.636 2.0332 19.2833V15.45C2.0332 15.0989 2.0332 14.7968 2.09607 14.53C2.19476 14.117 2.40587 13.7393 2.70601 13.4389C3.00615 13.1385 3.3836 12.9271 3.79654 12.828C4.06334 12.7667 4.36387 12.7667 4.71654 12.7667ZM4.7932 14.3C4.32094 14.3 4.21974 14.3046 4.1538 14.3215C4.01606 14.3544 3.89014 14.4248 3.79 14.525C3.68986 14.6251 3.61941 14.7511 3.58647 14.8888C3.57267 14.9517 3.56654 15.0529 3.56654 15.5267V19.2067C3.56654 19.6789 3.57114 19.7801 3.588 19.8461C3.62094 19.9838 3.69139 20.1097 3.79153 20.2099C3.89167 20.31 4.0176 20.3805 4.15534 20.4134C4.21974 20.4287 4.32094 20.4333 4.7932 20.4333H8.4732C8.94547 20.4333 9.04667 20.4272 9.1126 20.4119C9.25034 20.3789 9.37627 20.3085 9.47641 20.2083C9.57655 20.1082 9.647 19.9823 9.67994 19.8445C9.69527 19.7801 9.69987 19.6789 9.69987 19.2067V15.5267C9.69987 15.0544 9.69527 14.9532 9.6784 14.8873C9.64546 14.7495 9.57502 14.6236 9.47487 14.5235C9.37473 14.4233 9.24881 14.3529 9.11107 14.3199C9.0482 14.3061 8.947 14.3 8.4732 14.3H4.7932ZM15.5265 12.7667H15.4499C15.0987 12.7667 14.7967 12.7667 14.5299 12.8295C14.1168 12.9282 13.7392 13.1393 13.4388 13.4395C13.1384 13.7396 12.9269 14.1171 12.8279 14.53C12.7665 14.7968 12.7665 15.0973 12.7665 15.45V19.2833C12.7665 19.6345 12.7665 19.9365 12.8294 20.2033C12.9281 20.6163 13.1392 20.994 13.4393 21.2944C13.7395 21.5948 14.1169 21.8063 14.5299 21.9053C14.7967 21.9682 15.0987 21.9682 15.4499 21.9682H19.2832C19.6343 21.9682 19.9364 21.9682 20.2032 21.9053C20.6159 21.8064 20.9933 21.5952 21.2934 21.295C21.5935 20.9949 21.8047 20.6176 21.9037 20.2049C21.9665 19.9381 21.9665 19.636 21.9665 19.2849V15.4515C21.9665 15.1004 21.9665 14.7983 21.9037 14.5315C21.8052 14.1182 21.5942 13.7403 21.2941 13.4396C20.9939 13.1389 20.6163 12.9272 20.2032 12.828C19.9364 12.7667 19.6359 12.7667 19.2832 12.7667H15.5265ZM14.8871 14.3215C14.9531 14.3061 15.0558 14.3 15.5265 14.3H19.2065C19.6788 14.3 19.78 14.3046 19.8459 14.3215C19.9837 14.3544 20.1096 14.4248 20.2097 14.525C20.3099 14.6251 20.3803 14.7511 20.4133 14.8888C20.4286 14.9532 20.4332 15.0544 20.4332 15.5267V19.2067C20.4332 19.6789 20.4271 19.7801 20.4117 19.8461C20.3788 19.9838 20.3084 20.1097 20.2082 20.2099C20.1081 20.31 19.9821 20.3805 19.8444 20.4134C19.78 20.4287 19.6788 20.4333 19.2065 20.4333H15.5265C15.0543 20.4333 14.9531 20.4272 14.8871 20.4119C14.7494 20.3789 14.6235 20.3085 14.5233 20.2083C14.4232 20.1082 14.3527 19.9823 14.3198 19.8445C14.306 19.7817 14.2999 19.6805 14.2999 19.2067V15.5267C14.2999 15.0544 14.3045 14.9532 14.3213 14.8873C14.3543 14.7495 14.4247 14.6236 14.5249 14.5235C14.625 14.4233 14.7509 14.3529 14.8887 14.3199" fill="#303030"/>
</svg>
