<svg width="26" height="26" viewBox="0 0 26 26" fill="none" xmlns="http://www.w3.org/2000/svg">
<path fill-rule="evenodd" clip-rule="evenodd" d="M17.6562 25.5V15.8187H20.9062L21.3925 12.0462H17.655V9.6375C17.655 8.545 17.9587 7.8 19.5262 7.8H21.5237V4.425C20.5564 4.32205 19.5841 4.27198 18.6112 4.275C15.7312 4.275 13.76 6.03375 13.76 9.2625V12.0462H10.5V15.8187H13.7587V25.5H1.88C1.1175 25.5 0.5 24.8825 0.5 24.12V1.88C0.5 1.1175 1.1175 0.5 1.88 0.5H24.12C24.8825 0.5 25.5 1.1175 25.5 1.88V24.12C25.5 24.8825 24.8825 25.5 24.12 25.5H17.6562Z" fill="#F8F8F8"/>
</svg>
