<svg width="28" height="28" viewBox="0 0 28 28" fill="none" xmlns="http://www.w3.org/2000/svg">
<path fill-rule="evenodd" clip-rule="evenodd" d="M14 7.75C12.3424 7.75 10.7527 8.40848 9.58058 9.58058C8.40848 10.7527 7.75 12.3424 7.75 14C7.75 15.6576 8.40848 17.2473 9.58058 18.4194C10.7527 19.5915 12.3424 20.25 14 20.25C15.6576 20.25 17.2473 19.5915 18.4194 18.4194C19.5915 17.2473 20.25 15.6576 20.25 14C20.25 12.3424 19.5915 10.7527 18.4194 9.58058C17.2473 8.40848 15.6576 7.75 14 7.75ZM10.25 14C10.25 14.9946 10.6451 15.9484 11.3483 16.6517C12.0516 17.3549 13.0054 17.75 14 17.75C14.9946 17.75 15.9484 17.3549 16.6517 16.6517C17.3549 15.9484 17.75 14.9946 17.75 14C17.75 13.0054 17.3549 12.0516 16.6517 11.3483C15.9484 10.6451 14.9946 10.25 14 10.25C13.0054 10.25 12.0516 10.6451 11.3483 11.3483C10.6451 12.0516 10.25 13.0054 10.25 14Z" fill="#F8F8F8"/>
<path d="M21.5 5.25C21.1685 5.25 20.8505 5.3817 20.6161 5.61612C20.3817 5.85054 20.25 6.16848 20.25 6.5C20.25 6.83152 20.3817 7.14946 20.6161 7.38388C20.8505 7.6183 21.1685 7.75 21.5 7.75C21.8315 7.75 22.1495 7.6183 22.3839 7.38388C22.6183 7.14946 22.75 6.83152 22.75 6.5C22.75 6.16848 22.6183 5.85054 22.3839 5.61612C22.1495 5.3817 21.8315 5.25 21.5 5.25Z" fill="#F8F8F8"/>
<path fill-rule="evenodd" clip-rule="evenodd" d="M5.25 0.25C3.92392 0.25 2.65215 0.776784 1.71447 1.71447C0.776784 2.65215 0.25 3.92392 0.25 5.25V22.75C0.25 24.0761 0.776784 25.3479 1.71447 26.2855C2.65215 27.2232 3.92392 27.75 5.25 27.75H22.75C24.0761 27.75 25.3479 27.2232 26.2855 26.2855C27.2232 25.3479 27.75 24.0761 27.75 22.75V5.25C27.75 3.92392 27.2232 2.65215 26.2855 1.71447C25.3479 0.776784 24.0761 0.25 22.75 0.25H5.25ZM22.75 2.75H5.25C4.58696 2.75 3.95107 3.01339 3.48223 3.48223C3.01339 3.95107 2.75 4.58696 2.75 5.25V22.75C2.75 23.413 3.01339 24.0489 3.48223 24.5178C3.95107 24.9866 4.58696 25.25 5.25 25.25H22.75C23.413 25.25 24.0489 24.9866 24.5178 24.5178C24.9866 24.0489 25.25 23.413 25.25 22.75V5.25C25.25 4.58696 24.9866 3.95107 24.5178 3.48223C24.0489 3.01339 23.413 2.75 22.75 2.75Z" fill="#F8F8F8"/>
</svg>
