<svg width="27" height="27" viewBox="0 0 27 27" fill="none" xmlns="http://www.w3.org/2000/svg">
<path d="M21.0833 18.9167H13.5C12.3051 18.9167 11.3333 19.8884 11.3333 21.0833C11.3333 22.2783 12.3051 23.25 13.5 23.25H21.0833C22.2783 23.25 23.25 22.2783 23.25 21.0833C23.25 19.8884 22.2783 18.9167 21.0833 18.9167ZM21.0833 11.3333H13.5C12.3051 11.3333 11.3333 12.3051 11.3333 13.5C11.3333 14.6949 12.3051 15.6667 13.5 15.6667H21.0833C22.2783 15.6667 23.25 14.6949 23.25 13.5C23.25 12.3051 22.2783 11.3333 21.0833 11.3333ZM21.0833 3.75H13.5C12.3051 3.75 11.3333 4.72175 11.3333 5.91667C11.3333 7.11158 12.3051 8.08333 13.5 8.08333H21.0833C22.2783 8.08333 23.25 7.11158 23.25 5.91667C23.25 4.72175 22.2783 3.75 21.0833 3.75Z" fill="#272727"/>
<path d="M5.91668 23.7917C7.41245 23.7917 8.62501 22.5791 8.62501 21.0833C8.62501 19.5876 7.41245 18.375 5.91668 18.375C4.42091 18.375 3.20834 19.5876 3.20834 21.0833C3.20834 22.5791 4.42091 23.7917 5.91668 23.7917Z" fill="#272727"/>
<path d="M5.91668 16.2083C7.41245 16.2083 8.62501 14.9958 8.62501 13.5C8.62501 12.0042 7.41245 10.7917 5.91668 10.7917C4.42091 10.7917 3.20834 12.0042 3.20834 13.5C3.20834 14.9958 4.42091 16.2083 5.91668 16.2083Z" fill="#272727"/>
<path d="M5.91668 8.62498C7.41245 8.62498 8.62501 7.41242 8.62501 5.91665C8.62501 4.42087 7.41245 3.20831 5.91668 3.20831C4.42091 3.20831 3.20834 4.42087 3.20834 5.91665C3.20834 7.41242 4.42091 8.62498 5.91668 8.62498Z" fill="#272727"/>
</svg>
