<svg width="22" height="27" viewBox="0 0 22 27" fill="none" xmlns="http://www.w3.org/2000/svg">
<path fill-rule="evenodd" clip-rule="evenodd" d="M5.0625 11.833C5.0625 10.2583 5.68806 8.74806 6.80155 7.63456C7.91505 6.52106 9.42528 5.89551 11 5.89551C12.5747 5.89551 14.0849 6.52106 15.1984 7.63456C16.3119 8.74806 16.9375 10.2583 16.9375 11.833C16.9375 13.4077 16.3119 14.918 15.1984 16.0315C14.0849 17.145 12.5747 17.7705 11 17.7705C9.42528 17.7705 7.91505 17.145 6.80155 16.0315C5.68806 14.918 5.0625 13.4077 5.0625 11.833ZM11 7.77051C9.92256 7.77051 8.88925 8.19852 8.12738 8.96039C7.36551 9.72225 6.9375 10.7556 6.9375 11.833C6.9375 12.9104 7.36551 13.9438 8.12738 14.7056C8.88925 15.4675 9.92256 15.8955 11 15.8955C12.0774 15.8955 13.1108 15.4675 13.8726 14.7056C14.6345 13.9438 15.0625 12.9104 15.0625 11.833C15.0625 10.7556 14.6345 9.72225 13.8726 8.96039C13.1108 8.19852 12.0774 7.77051 11 7.77051Z" fill="#2A2A2A"/>
<path fill-rule="evenodd" clip-rule="evenodd" d="M0.404982 10.4043C0.61864 7.81276 1.79902 5.39637 3.71175 3.63485C5.62448 1.87333 8.12969 0.8955 10.73 0.895508H11.27C13.8703 0.8955 16.3755 1.87333 18.2882 3.63485C20.201 5.39637 21.3813 7.81276 21.595 10.4043C21.8327 13.2909 20.941 16.1571 19.1075 18.3993L13.1162 25.7255C12.8598 26.0391 12.537 26.2917 12.171 26.4652C11.805 26.6387 11.405 26.7287 11 26.7287C10.595 26.7287 10.195 26.6387 9.82899 26.4652C9.463 26.2917 9.14013 26.0391 8.88373 25.7255L2.89248 18.3993C1.05888 16.1571 0.167089 13.2909 0.404982 10.4043ZM10.73 2.77051C8.60059 2.77083 6.54915 3.57179 4.98288 5.01441C3.41662 6.45702 2.45003 8.43582 2.27498 10.558C2.07698 12.9603 2.81909 15.3457 4.34498 17.2118L10.3362 24.5393C10.4168 24.6378 10.5182 24.7173 10.6332 24.7718C10.7482 24.8264 10.8739 24.8547 11.0012 24.8547C11.1285 24.8547 11.2542 24.8264 11.3692 24.7718C11.4842 24.7173 11.5857 24.6378 11.6662 24.5393L17.6575 17.2118C19.1825 15.3454 19.9237 12.96 19.725 10.558C19.5499 8.4356 18.5832 6.45663 17.0166 5.01398C15.4501 3.57134 13.3983 2.77052 11.2687 2.77051H10.73Z" fill="#2A2A2A"/>
</svg>
