<svg width="28" height="28" viewBox="0 0 28 28" fill="none" xmlns="http://www.w3.org/2000/svg">
<path d="M21.7417 18.2818L23.7442 12.2743C25.4936 7.02615 26.3682 4.40209 24.9831 3.01695C23.5979 1.6318 20.9739 2.50649 15.7258 4.25586L9.71822 6.25838C5.48248 7.67029 3.36461 8.37625 2.76278 9.41148C2.19024 10.3963 2.19024 11.6126 2.76277 12.5975C3.36461 13.6327 5.48248 14.3387 9.71822 15.7506C10.3983 15.9773 10.7384 16.0906 11.0226 16.2809C11.2981 16.4653 11.5347 16.702 11.7191 16.9774C11.9094 17.2617 12.0228 17.6017 12.2495 18.2818C13.6614 22.5176 14.3673 24.6354 15.4026 25.2373C16.3874 25.8098 17.6037 25.8098 18.5886 25.2373C19.6238 24.6354 20.3298 22.5176 21.7417 18.2818Z" stroke="#303030" stroke-width="1.5"/>
<path d="M18.8256 10.2344C19.1201 9.94315 19.1227 9.46828 18.8315 9.17377C18.5402 8.87926 18.0653 8.87662 17.7708 9.16789L18.8256 10.2344ZM12.3518 16.6368L18.8256 10.2344L17.7708 9.16789L11.2971 15.5703L12.3518 16.6368Z" fill="#303030"/>
</svg>
