<svg width="26" height="26" viewBox="0 0 26 26" fill="none" xmlns="http://www.w3.org/2000/svg">
<g clip-path="url(#clip0_143_227)">
<path d="M3.46056 25.1875H0.812521V11.9505C0.810093 11.0463 1.01921 10.154 1.42317 9.34497C1.97162 8.13467 2.85694 7.10786 3.97334 6.38724C5.08973 5.66663 6.39 5.28267 7.71877 5.28125H14.6533V0.8125H16.8045L25.1178 9.1259L16.7749 17.4688H14.6533V13H10.1433C9.19996 13.0023 8.28307 13.3121 7.53169 13.8825C6.7803 14.4529 6.2354 15.2528 5.97961 16.1608L3.46056 25.1875ZM7.71877 6.90625C6.70026 6.90734 5.70369 7.20231 4.84867 7.75576C3.99365 8.30921 3.31649 9.09763 2.89846 10.0264L2.88363 10.0576C2.58843 10.6448 2.4356 11.2933 2.43752 11.9505V22.808L4.41443 15.7241C4.76635 14.4747 5.51607 13.3741 6.54991 12.5893C7.58376 11.8044 8.84533 11.3781 10.1433 11.375H16.2783V15.6673L22.8197 9.1259L16.2783 2.58446V6.90625H7.71877Z" fill="#2C7865"/>
</g>
<defs>
<clipPath id="clip0_143_227">
<rect width="26" height="26" fill="white"/>
</clipPath>
</defs>
</svg>
