<svg width="21" height="20" viewBox="0 0 21 20" fill="none" xmlns="http://www.w3.org/2000/svg">
<path d="M8.2525 5C8.2525 4.33762 8.51563 3.70238 8.984 3.234C9.45237 2.76563 10.0876 2.5025 10.75 2.5025C11.4124 2.5025 12.0476 2.76563 12.516 3.234C12.9844 3.70238 13.2475 4.33762 13.2475 5C13.2475 5.66238 12.9844 6.29763 12.516 6.766C12.0476 7.23437 11.4124 7.4975 10.75 7.4975C10.0876 7.4975 9.45237 7.23437 8.984 6.766C8.51563 6.29763 8.2525 5.66238 8.2525 5ZM10.75 3.7525C10.5862 3.7525 10.424 3.78477 10.2726 3.84746C10.1212 3.91016 9.98373 4.00205 9.86788 4.11789C9.75204 4.23373 9.66015 4.37125 9.59746 4.5226C9.53477 4.67396 9.5025 4.83618 9.5025 5C9.5025 5.16383 9.53477 5.32605 9.59746 5.4774C9.66015 5.62875 9.75204 5.76628 9.86788 5.88212C9.98373 5.99796 10.1212 6.08985 10.2726 6.15254C10.424 6.21523 10.5862 6.2475 10.75 6.2475C11.0809 6.2475 11.3982 6.11607 11.6321 5.88212C11.8661 5.64817 11.9975 5.33086 11.9975 5C11.9975 4.66914 11.8661 4.35184 11.6321 4.11789C11.3982 3.88394 11.0809 3.7525 10.75 3.7525ZM14.5 5.625C14.5 5.37877 14.5485 5.13496 14.6427 4.90747C14.737 4.67999 14.8751 4.47329 15.0492 4.29918C15.2233 4.12507 15.43 3.98696 15.6575 3.89273C15.885 3.7985 16.1288 3.75 16.375 3.75C16.6212 3.75 16.865 3.7985 17.0925 3.89273C17.32 3.98696 17.5267 4.12507 17.7008 4.29918C17.8749 4.47329 18.013 4.67999 18.1073 4.90747C18.2015 5.13496 18.25 5.37877 18.25 5.625C18.25 6.12228 18.0525 6.5992 17.7008 6.95083C17.3492 7.30246 16.8723 7.5 16.375 7.5C15.8777 7.5 15.4008 7.30246 15.0492 6.95083C14.6975 6.5992 14.5 6.12228 14.5 5.625ZM16.375 5C16.2092 5 16.0503 5.06585 15.9331 5.18306C15.8158 5.30027 15.75 5.45924 15.75 5.625C15.75 5.79076 15.8158 5.94973 15.9331 6.06694C16.0503 6.18415 16.2092 6.25 16.375 6.25C16.5408 6.25 16.6997 6.18415 16.8169 6.06694C16.9342 5.94973 17 5.79076 17 5.625C17 5.45924 16.9342 5.30027 16.8169 5.18306C16.6997 5.06585 16.5408 5 16.375 5ZM5.125 3.75C4.62772 3.75 4.15081 3.94755 3.79918 4.29918C3.44754 4.65081 3.25 5.12772 3.25 5.625C3.25 6.12228 3.44754 6.5992 3.79918 6.95083C4.15081 7.30246 4.62772 7.5 5.125 7.5C5.62228 7.5 6.09919 7.30246 6.45083 6.95083C6.80246 6.5992 7 6.12228 7 5.625C7 5.12772 6.80246 4.65081 6.45083 4.29918C6.09919 3.94755 5.62228 3.75 5.125 3.75ZM4.5 5.625C4.5 5.45924 4.56585 5.30027 4.68306 5.18306C4.80027 5.06585 4.95924 5 5.125 5C5.29076 5 5.44973 5.06585 5.56694 5.18306C5.68415 5.30027 5.75 5.45924 5.75 5.625C5.75 5.79076 5.68415 5.94973 5.56694 6.06694C5.44973 6.18415 5.29076 6.25 5.125 6.25C4.95924 6.25 4.80027 6.18415 4.68306 6.06694C4.56585 5.94973 4.5 5.79076 4.5 5.625ZM6.085 8.75C5.86556 9.13004 5.75002 9.56116 5.75 10H3.25V13.125C3.2499 13.4359 3.32712 13.742 3.47471 14.0156C3.6223 14.2893 3.83563 14.522 4.09549 14.6927C4.35535 14.8634 4.65358 14.9668 4.96334 14.9936C5.27311 15.0204 5.58468 14.9698 5.87 14.8463C5.9625 15.26 6.1075 15.655 6.295 16.0238C5.82058 16.2153 5.30639 16.2874 4.79757 16.2338C4.28876 16.1802 3.80088 16.0025 3.3768 15.7163C2.95272 15.4301 2.6054 15.0441 2.36534 14.5923C2.12528 14.1405 1.99983 13.6366 2 13.125V10C2 9.66848 2.1317 9.35054 2.36612 9.11612C2.60054 8.8817 2.91848 8.75 3.25 8.75H6.085ZM15.205 16.0238C15.6794 16.2153 16.1936 16.2874 16.7024 16.2338C17.2112 16.1802 17.6991 16.0025 18.1232 15.7163C18.5473 15.4301 18.8946 15.0441 19.1347 14.5923C19.3747 14.1405 19.5002 13.6366 19.5 13.125V10C19.5 9.66848 19.3683 9.35054 19.1339 9.11612C18.8995 8.8817 18.5815 8.75 18.25 8.75H15.415C15.6275 9.1175 15.75 9.54375 15.75 10H18.25V13.125C18.2501 13.4359 18.1729 13.742 18.0253 14.0156C17.8777 14.2893 17.6644 14.522 17.4045 14.6927C17.1447 14.8634 16.8464 14.9668 16.5367 14.9936C16.2269 15.0204 15.9153 14.9698 15.63 14.8463C15.535 15.2613 15.3933 15.6538 15.205 16.0238ZM8.25 8.74875C7.91848 8.74875 7.60054 8.88045 7.36612 9.11487C7.1317 9.34929 7 9.66723 7 9.99875V13.75C7 14.7446 7.39509 15.6984 8.09835 16.4017C8.80161 17.1049 9.75544 17.5 10.75 17.5C11.7446 17.5 12.6984 17.1049 13.4017 16.4017C14.1049 15.6984 14.5 14.7446 14.5 13.75V10C14.5 9.66848 14.3683 9.35054 14.1339 9.11612C13.8995 8.8817 13.5815 8.75 13.25 8.75L8.25 8.74875ZM8.25 9.99875H13.25V13.75C13.25 14.413 12.9866 15.0489 12.5178 15.5178C12.0489 15.9866 11.413 16.25 10.75 16.25C10.087 16.25 9.45107 15.9866 8.98223 15.5178C8.51339 15.0489 8.25 14.413 8.25 13.75V9.99875Z" fill="#272727"/>
</svg>
