<svg width="20" height="21" viewBox="0 0 20 21" fill="none" xmlns="http://www.w3.org/2000/svg">
<path d="M7.5025 5.44986C7.5025 4.78748 7.76563 4.15223 8.234 3.68386C8.70237 3.21549 9.33762 2.95236 10 2.95236C10.6624 2.95236 11.2976 3.21549 11.766 3.68386C12.2344 4.15223 12.4975 4.78748 12.4975 5.44986C12.4975 6.11224 12.2344 6.74749 11.766 7.21586C11.2976 7.68423 10.6624 7.94736 10 7.94736C9.33762 7.94736 8.70237 7.68423 8.234 7.21586C7.76563 6.74749 7.5025 6.11224 7.5025 5.44986ZM10 4.20236C9.83618 4.20236 9.67396 4.23463 9.5226 4.29732C9.37125 4.36001 9.23373 4.45191 9.11788 4.56775C9.00204 4.68359 8.91015 4.82111 8.84746 4.97246C8.78477 5.12382 8.7525 5.28604 8.7525 5.44986C8.7525 5.61369 8.78477 5.77591 8.84746 5.92726C8.91015 6.07861 9.00204 6.21614 9.11788 6.33198C9.23373 6.44782 9.37125 6.53971 9.5226 6.6024C9.67396 6.66509 9.83618 6.69736 10 6.69736C10.3309 6.69736 10.6482 6.56593 10.8821 6.33198C11.1161 6.09803 11.2475 5.78072 11.2475 5.44986C11.2475 5.119 11.1161 4.8017 10.8821 4.56775C10.6482 4.33379 10.3309 4.20236 10 4.20236ZM13.75 6.07486C13.75 5.82863 13.7985 5.58482 13.8927 5.35733C13.987 5.12984 14.1251 4.92315 14.2992 4.74904C14.4733 4.57493 14.68 4.43682 14.9075 4.34259C15.135 4.24836 15.3788 4.19986 15.625 4.19986C15.8712 4.19986 16.115 4.24836 16.3425 4.34259C16.57 4.43682 16.7767 4.57493 16.9508 4.74904C17.1249 4.92315 17.263 5.12984 17.3573 5.35733C17.4515 5.58482 17.5 5.82863 17.5 6.07486C17.5 6.57214 17.3025 7.04906 16.9508 7.40069C16.5992 7.75232 16.1223 7.94986 15.625 7.94986C15.1277 7.94986 14.6508 7.75232 14.2992 7.40069C13.9475 7.04906 13.75 6.57214 13.75 6.07486ZM15.625 5.44986C15.4592 5.44986 15.3003 5.51571 15.1831 5.63292C15.0658 5.75013 15 5.9091 15 6.07486C15 6.24062 15.0658 6.39959 15.1831 6.5168C15.3003 6.63401 15.4592 6.69986 15.625 6.69986C15.7908 6.69986 15.9497 6.63401 16.0669 6.5168C16.1842 6.39959 16.25 6.24062 16.25 6.07486C16.25 5.9091 16.1842 5.75013 16.0669 5.63292C15.9497 5.51571 15.7908 5.44986 15.625 5.44986ZM4.375 4.19986C3.87772 4.19986 3.40081 4.39741 3.04918 4.74904C2.69754 5.10067 2.5 5.57758 2.5 6.07486C2.5 6.57214 2.69754 7.04906 3.04918 7.40069C3.40081 7.75232 3.87772 7.94986 4.375 7.94986C4.87228 7.94986 5.3492 7.75232 5.70083 7.40069C6.05246 7.04906 6.25 6.57214 6.25 6.07486C6.25 5.57758 6.05246 5.10067 5.70083 4.74904C5.3492 4.39741 4.87228 4.19986 4.375 4.19986ZM3.75 6.07486C3.75 5.9091 3.81585 5.75013 3.93306 5.63292C4.05027 5.51571 4.20924 5.44986 4.375 5.44986C4.54076 5.44986 4.69973 5.51571 4.81694 5.63292C4.93415 5.75013 5 5.9091 5 6.07486C5 6.24062 4.93415 6.39959 4.81694 6.5168C4.69973 6.63401 4.54076 6.69986 4.375 6.69986C4.20924 6.69986 4.05027 6.63401 3.93306 6.5168C3.81585 6.39959 3.75 6.24062 3.75 6.07486ZM5.335 9.19986C5.11556 9.5799 5.00002 10.011 5 10.4499H2.5V13.5749C2.4999 13.8858 2.57712 14.1919 2.72471 14.4655C2.8723 14.7392 3.08563 14.9718 3.34549 15.1425C3.60535 15.3133 3.90358 15.4167 4.21334 15.4435C4.52311 15.4703 4.83468 15.4197 5.12 15.2961C5.2125 15.7099 5.3575 16.1049 5.545 16.4736C5.07058 16.6652 4.55639 16.7373 4.04757 16.6837C3.53876 16.6301 3.05088 16.4524 2.6268 16.1662C2.20272 15.8799 1.8554 15.494 1.61534 15.0422C1.37528 14.5903 1.24983 14.0865 1.25 13.5749V10.4499C1.25 10.1183 1.3817 9.8004 1.61612 9.56598C1.85054 9.33156 2.16848 9.19986 2.5 9.19986H5.335ZM14.455 16.4736C14.9294 16.6652 15.4436 16.7373 15.9524 16.6837C16.4612 16.6301 16.9491 16.4524 17.3732 16.1662C17.7973 15.8799 18.1446 15.494 18.3847 15.0422C18.6247 14.5903 18.7502 14.0865 18.75 13.5749V10.4499C18.75 10.1183 18.6183 9.8004 18.3839 9.56598C18.1495 9.33156 17.8315 9.19986 17.5 9.19986H14.665C14.8775 9.56736 15 9.99361 15 10.4499H17.5V13.5749C17.5001 13.8858 17.4229 14.1919 17.2753 14.4655C17.1277 14.7392 16.9144 14.9718 16.6545 15.1425C16.3947 15.3133 16.0964 15.4167 15.7867 15.4435C15.4769 15.4703 15.1653 15.4197 14.88 15.2961C14.785 15.7111 14.6433 16.1036 14.455 16.4736ZM7.5 9.19861C7.16848 9.19861 6.85054 9.33031 6.61612 9.56473C6.3817 9.79915 6.25 10.1171 6.25 10.4486V14.1999C6.25 15.1944 6.64509 16.1483 7.34835 16.8515C8.05161 17.5548 9.00544 17.9499 10 17.9499C10.9946 17.9499 11.9484 17.5548 12.6517 16.8515C13.3549 16.1483 13.75 15.1944 13.75 14.1999V10.4499C13.75 10.1183 13.6183 9.8004 13.3839 9.56598C13.1495 9.33156 12.8315 9.19986 12.5 9.19986L7.5 9.19861ZM7.5 10.4486H12.5V14.1999C12.5 14.8629 12.2366 15.4988 11.7678 15.9676C11.2989 16.4365 10.663 16.6999 10 16.6999C9.33696 16.6999 8.70107 16.4365 8.23223 15.9676C7.76339 15.4988 7.5 14.8629 7.5 14.1999V10.4486Z" fill="black" fill-opacity="0.5"/>
</svg>
