<svg width="24" height="26" viewBox="0 0 24 26" fill="none" xmlns="http://www.w3.org/2000/svg">
<path d="M18.025 23.96L1.6912 2.96C1.60511 2.84914 1.55186 2.71634 1.5375 2.57671C1.52315 2.43708 1.54826 2.29623 1.60999 2.17017C1.67172 2.04411 1.76758 1.9379 1.88668 1.86362C2.00578 1.78934 2.14334 1.74998 2.2837 1.75H5.3837C5.49782 1.75017 5.6104 1.77638 5.71286 1.82664C5.81532 1.87689 5.90496 1.94986 5.97495 2.04L22.3087 23.04C22.3948 23.1509 22.448 23.2837 22.4624 23.4233C22.4768 23.5629 22.4516 23.7038 22.3899 23.8298C22.3282 23.9559 22.2323 24.0621 22.1132 24.1364C21.9941 24.2107 21.8566 24.25 21.7162 24.25H18.6162C18.5021 24.2498 18.3895 24.2236 18.287 24.1734C18.1846 24.1231 18.0949 24.0501 18.025 23.96Z" stroke="#F8F8F8" stroke-width="2"/>
<path d="M22 1.75L2 24.25" stroke="#F8F8F8" stroke-width="3.125" stroke-linecap="round"/>
</svg>
