<svg width="24" height="24" viewBox="0 0 24 24" fill="none" xmlns="http://www.w3.org/2000/svg">
<path d="M12 0.75C6.77063 0.75 2.38313 4.3425 1.13063 9.1875H3.06562C4.26187 5.38594 7.80938 2.625 12 2.625C17.1712 2.625 21.375 6.82875 21.375 12C21.375 17.1712 17.1712 21.375 12 21.375C7.81031 21.375 4.26187 18.6141 3.06469 14.8125H1.13063C2.38313 19.6575 6.77063 23.25 12 23.25C18.2034 23.25 23.25 18.2034 23.25 12C23.25 5.79656 18.2034 0.75 12 0.75ZM11.385 7.57594L10.0369 8.92406L12.1753 11.0625H0.75V12.9375H12.1762L10.0369 15.0759L11.385 16.4241L15.135 12.6741L15.7781 12L15.1341 11.3259L11.385 7.57594Z" fill="white"/>
</svg>
